<mxfile host="app.diagrams.net" agent="Mozilla/5.0 (Windows NT 10.0; Win64; x64) AppleWebKit/537.36 (KHTML, like Gecko) Chrome/131.0.0.0 Safari/537.36" version="25.0.3">
  <diagram name="หน้า-1" id="Ynq5Ag4JuF6pFpJywq_N">
    <mxGraphModel dx="1034" dy="446" grid="1" gridSize="10" guides="1" tooltips="1" connect="1" arrows="1" fold="1" page="1" pageScale="1" pageWidth="827" pageHeight="1169" math="0" shadow="0">
      <root>
        <mxCell id="0" />
        <mxCell id="1" parent="0" />
        <mxCell id="MVYVEAA_Kf6R7zkhuGr3-3" value="" style="edgeStyle=orthogonalEdgeStyle;rounded=0;orthogonalLoop=1;jettySize=auto;html=1;" edge="1" parent="1" source="MVYVEAA_Kf6R7zkhuGr3-1" target="MVYVEAA_Kf6R7zkhuGr3-2">
          <mxGeometry relative="1" as="geometry" />
        </mxCell>
        <mxCell id="MVYVEAA_Kf6R7zkhuGr3-1" value="start" style="strokeWidth=2;html=1;shape=mxgraph.flowchart.start_1;whiteSpace=wrap;" vertex="1" parent="1">
          <mxGeometry x="364" y="40" width="100" height="60" as="geometry" />
        </mxCell>
        <mxCell id="MVYVEAA_Kf6R7zkhuGr3-5" value="" style="edgeStyle=orthogonalEdgeStyle;rounded=0;orthogonalLoop=1;jettySize=auto;html=1;" edge="1" parent="1" source="MVYVEAA_Kf6R7zkhuGr3-2" target="MVYVEAA_Kf6R7zkhuGr3-4">
          <mxGeometry relative="1" as="geometry" />
        </mxCell>
        <mxCell id="MVYVEAA_Kf6R7zkhuGr3-2" value="กำหนดตัวแปร&amp;nbsp;&lt;div&gt;int&amp;nbsp;&amp;nbsp;&lt;span style=&quot;background-color: initial;&quot;&gt;number&lt;/span&gt;&lt;/div&gt;&lt;div&gt;&lt;span style=&quot;background-color: initial;&quot;&gt;term = 0&lt;/span&gt;&lt;/div&gt;&lt;div&gt;&lt;span style=&quot;background-color: initial;&quot;&gt;series = 0&lt;/span&gt;&lt;/div&gt;" style="whiteSpace=wrap;html=1;strokeWidth=2;" vertex="1" parent="1">
          <mxGeometry x="354" y="180" width="120" height="60" as="geometry" />
        </mxCell>
        <mxCell id="MVYVEAA_Kf6R7zkhuGr3-7" value="" style="edgeStyle=orthogonalEdgeStyle;rounded=0;orthogonalLoop=1;jettySize=auto;html=1;" edge="1" parent="1" source="MVYVEAA_Kf6R7zkhuGr3-4" target="MVYVEAA_Kf6R7zkhuGr3-6">
          <mxGeometry relative="1" as="geometry" />
        </mxCell>
        <mxCell id="MVYVEAA_Kf6R7zkhuGr3-4" value="แสดงคำว่า Enter Number&amp;nbsp;" style="shape=parallelogram;perimeter=parallelogramPerimeter;whiteSpace=wrap;html=1;fixedSize=1;strokeWidth=2;" vertex="1" parent="1">
          <mxGeometry x="311" y="310" width="206" height="60" as="geometry" />
        </mxCell>
        <mxCell id="MVYVEAA_Kf6R7zkhuGr3-9" value="" style="edgeStyle=orthogonalEdgeStyle;rounded=0;orthogonalLoop=1;jettySize=auto;html=1;" edge="1" parent="1" source="MVYVEAA_Kf6R7zkhuGr3-6" target="MVYVEAA_Kf6R7zkhuGr3-8">
          <mxGeometry relative="1" as="geometry" />
        </mxCell>
        <mxCell id="MVYVEAA_Kf6R7zkhuGr3-6" value="รับค่าจากผู้ใช้" style="shape=parallelogram;perimeter=parallelogramPerimeter;whiteSpace=wrap;html=1;fixedSize=1;strokeWidth=2;" vertex="1" parent="1">
          <mxGeometry x="354" y="450" width="120" height="60" as="geometry" />
        </mxCell>
        <mxCell id="MVYVEAA_Kf6R7zkhuGr3-29" value="" style="edgeStyle=orthogonalEdgeStyle;rounded=0;orthogonalLoop=1;jettySize=auto;html=1;" edge="1" parent="1" source="MVYVEAA_Kf6R7zkhuGr3-8" target="MVYVEAA_Kf6R7zkhuGr3-28">
          <mxGeometry relative="1" as="geometry" />
        </mxCell>
        <mxCell id="MVYVEAA_Kf6R7zkhuGr3-8" value="แสดงคำว่า series =" style="shape=parallelogram;perimeter=parallelogramPerimeter;whiteSpace=wrap;html=1;fixedSize=1;strokeWidth=2;" vertex="1" parent="1">
          <mxGeometry x="336" y="590" width="156" height="60" as="geometry" />
        </mxCell>
        <mxCell id="MVYVEAA_Kf6R7zkhuGr3-21" value="" style="edgeStyle=orthogonalEdgeStyle;rounded=0;orthogonalLoop=1;jettySize=auto;html=1;" edge="1" parent="1" source="MVYVEAA_Kf6R7zkhuGr3-18" target="MVYVEAA_Kf6R7zkhuGr3-20">
          <mxGeometry relative="1" as="geometry" />
        </mxCell>
        <mxCell id="MVYVEAA_Kf6R7zkhuGr3-51" value="" style="edgeStyle=orthogonalEdgeStyle;rounded=0;orthogonalLoop=1;jettySize=auto;html=1;" edge="1" parent="1" source="MVYVEAA_Kf6R7zkhuGr3-18" target="MVYVEAA_Kf6R7zkhuGr3-48">
          <mxGeometry relative="1" as="geometry">
            <Array as="points">
              <mxPoint x="660" y="795" />
              <mxPoint x="660" y="1970" />
            </Array>
          </mxGeometry>
        </mxCell>
        <mxCell id="MVYVEAA_Kf6R7zkhuGr3-18" value="i &amp;lt;= number ?" style="rhombus;whiteSpace=wrap;html=1;strokeWidth=2;" vertex="1" parent="1">
          <mxGeometry x="321" y="720" width="186" height="150" as="geometry" />
        </mxCell>
        <mxCell id="MVYVEAA_Kf6R7zkhuGr3-23" value="" style="edgeStyle=orthogonalEdgeStyle;rounded=0;orthogonalLoop=1;jettySize=auto;html=1;" edge="1" parent="1" source="MVYVEAA_Kf6R7zkhuGr3-20" target="MVYVEAA_Kf6R7zkhuGr3-22">
          <mxGeometry relative="1" as="geometry" />
        </mxCell>
        <mxCell id="MVYVEAA_Kf6R7zkhuGr3-20" value="term = term * 10 +9" style="whiteSpace=wrap;html=1;strokeWidth=2;" vertex="1" parent="1">
          <mxGeometry x="354" y="995" width="120" height="60" as="geometry" />
        </mxCell>
        <mxCell id="MVYVEAA_Kf6R7zkhuGr3-25" value="" style="edgeStyle=orthogonalEdgeStyle;rounded=0;orthogonalLoop=1;jettySize=auto;html=1;" edge="1" parent="1" source="MVYVEAA_Kf6R7zkhuGr3-22" target="MVYVEAA_Kf6R7zkhuGr3-24">
          <mxGeometry relative="1" as="geometry" />
        </mxCell>
        <mxCell id="MVYVEAA_Kf6R7zkhuGr3-22" value="sum += term" style="whiteSpace=wrap;html=1;strokeWidth=2;" vertex="1" parent="1">
          <mxGeometry x="354" y="1135" width="120" height="60" as="geometry" />
        </mxCell>
        <mxCell id="MVYVEAA_Kf6R7zkhuGr3-33" value="" style="edgeStyle=orthogonalEdgeStyle;rounded=0;orthogonalLoop=1;jettySize=auto;html=1;" edge="1" parent="1" source="MVYVEAA_Kf6R7zkhuGr3-24" target="MVYVEAA_Kf6R7zkhuGr3-32">
          <mxGeometry relative="1" as="geometry" />
        </mxCell>
        <mxCell id="MVYVEAA_Kf6R7zkhuGr3-24" value="แสดงผลของ term" style="whiteSpace=wrap;html=1;strokeWidth=2;" vertex="1" parent="1">
          <mxGeometry x="354" y="1275" width="120" height="60" as="geometry" />
        </mxCell>
        <mxCell id="MVYVEAA_Kf6R7zkhuGr3-31" style="edgeStyle=orthogonalEdgeStyle;rounded=0;orthogonalLoop=1;jettySize=auto;html=1;exitX=0;exitY=0.5;exitDx=0;exitDy=0;entryX=0.5;entryY=0;entryDx=0;entryDy=0;" edge="1" parent="1" source="MVYVEAA_Kf6R7zkhuGr3-28" target="MVYVEAA_Kf6R7zkhuGr3-18">
          <mxGeometry relative="1" as="geometry" />
        </mxCell>
        <mxCell id="MVYVEAA_Kf6R7zkhuGr3-28" value="i = 1" style="whiteSpace=wrap;html=1;strokeWidth=2;" vertex="1" parent="1">
          <mxGeometry x="540" y="660" width="120" height="60" as="geometry" />
        </mxCell>
        <mxCell id="MVYVEAA_Kf6R7zkhuGr3-37" value="" style="edgeStyle=orthogonalEdgeStyle;rounded=0;orthogonalLoop=1;jettySize=auto;html=1;" edge="1" parent="1" source="MVYVEAA_Kf6R7zkhuGr3-32" target="MVYVEAA_Kf6R7zkhuGr3-36">
          <mxGeometry relative="1" as="geometry" />
        </mxCell>
        <mxCell id="MVYVEAA_Kf6R7zkhuGr3-40" style="edgeStyle=orthogonalEdgeStyle;rounded=0;orthogonalLoop=1;jettySize=auto;html=1;exitX=1;exitY=0.5;exitDx=0;exitDy=0;entryX=1;entryY=0.5;entryDx=0;entryDy=0;" edge="1" parent="1" source="MVYVEAA_Kf6R7zkhuGr3-32" target="MVYVEAA_Kf6R7zkhuGr3-38">
          <mxGeometry relative="1" as="geometry">
            <Array as="points">
              <mxPoint x="560" y="1445" />
              <mxPoint x="560" y="1745" />
            </Array>
          </mxGeometry>
        </mxCell>
        <mxCell id="MVYVEAA_Kf6R7zkhuGr3-32" value="i &amp;lt; number ?" style="rhombus;whiteSpace=wrap;html=1;strokeWidth=2;" vertex="1" parent="1">
          <mxGeometry x="374" y="1405" width="80" height="80" as="geometry" />
        </mxCell>
        <mxCell id="MVYVEAA_Kf6R7zkhuGr3-39" value="" style="edgeStyle=orthogonalEdgeStyle;rounded=0;orthogonalLoop=1;jettySize=auto;html=1;" edge="1" parent="1" source="MVYVEAA_Kf6R7zkhuGr3-36" target="MVYVEAA_Kf6R7zkhuGr3-38">
          <mxGeometry relative="1" as="geometry" />
        </mxCell>
        <mxCell id="MVYVEAA_Kf6R7zkhuGr3-36" value="แสดง +&amp;nbsp;" style="shape=parallelogram;perimeter=parallelogramPerimeter;whiteSpace=wrap;html=1;fixedSize=1;strokeWidth=2;" vertex="1" parent="1">
          <mxGeometry x="354" y="1575" width="120" height="60" as="geometry" />
        </mxCell>
        <mxCell id="MVYVEAA_Kf6R7zkhuGr3-43" style="edgeStyle=orthogonalEdgeStyle;rounded=0;orthogonalLoop=1;jettySize=auto;html=1;exitX=0.5;exitY=1;exitDx=0;exitDy=0;" edge="1" parent="1" source="MVYVEAA_Kf6R7zkhuGr3-38" target="MVYVEAA_Kf6R7zkhuGr3-44">
          <mxGeometry relative="1" as="geometry">
            <mxPoint x="240" y="690" as="targetPoint" />
            <Array as="points">
              <mxPoint x="414" y="1830" />
              <mxPoint x="260" y="1830" />
              <mxPoint x="260" y="690" />
            </Array>
          </mxGeometry>
        </mxCell>
        <mxCell id="MVYVEAA_Kf6R7zkhuGr3-38" value="i ++" style="whiteSpace=wrap;html=1;strokeWidth=2;" vertex="1" parent="1">
          <mxGeometry x="354" y="1715" width="120" height="60" as="geometry" />
        </mxCell>
        <mxCell id="MVYVEAA_Kf6R7zkhuGr3-41" value="T" style="text;html=1;align=center;verticalAlign=middle;resizable=0;points=[];autosize=1;strokeColor=none;fillColor=none;" vertex="1" parent="1">
          <mxGeometry x="425" y="1528" width="30" height="30" as="geometry" />
        </mxCell>
        <mxCell id="MVYVEAA_Kf6R7zkhuGr3-42" value="F" style="text;html=1;align=center;verticalAlign=middle;resizable=0;points=[];autosize=1;strokeColor=none;fillColor=none;" vertex="1" parent="1">
          <mxGeometry x="455" y="1408" width="30" height="30" as="geometry" />
        </mxCell>
        <mxCell id="MVYVEAA_Kf6R7zkhuGr3-44" value="" style="shape=waypoint;sketch=0;fillStyle=solid;size=6;pointerEvents=1;points=[];fillColor=none;resizable=0;rotatable=0;perimeter=centerPerimeter;snapToPoint=1;" vertex="1" parent="1">
          <mxGeometry x="404" y="680" width="20" height="20" as="geometry" />
        </mxCell>
        <mxCell id="MVYVEAA_Kf6R7zkhuGr3-55" value="" style="edgeStyle=orthogonalEdgeStyle;rounded=0;orthogonalLoop=1;jettySize=auto;html=1;" edge="1" parent="1" source="MVYVEAA_Kf6R7zkhuGr3-48" target="MVYVEAA_Kf6R7zkhuGr3-54">
          <mxGeometry relative="1" as="geometry" />
        </mxCell>
        <mxCell id="MVYVEAA_Kf6R7zkhuGr3-48" value="แสดงผลรวม" style="shape=parallelogram;perimeter=parallelogramPerimeter;whiteSpace=wrap;html=1;fixedSize=1;strokeWidth=2;" vertex="1" parent="1">
          <mxGeometry x="354" y="1940" width="120" height="60" as="geometry" />
        </mxCell>
        <mxCell id="MVYVEAA_Kf6R7zkhuGr3-52" value="F" style="text;html=1;align=center;verticalAlign=middle;resizable=0;points=[];autosize=1;strokeColor=none;fillColor=none;" vertex="1" parent="1">
          <mxGeometry x="515" y="758" width="30" height="30" as="geometry" />
        </mxCell>
        <mxCell id="MVYVEAA_Kf6R7zkhuGr3-53" value="T" style="text;html=1;align=center;verticalAlign=middle;resizable=0;points=[];autosize=1;strokeColor=none;fillColor=none;" vertex="1" parent="1">
          <mxGeometry x="365" y="868" width="30" height="30" as="geometry" />
        </mxCell>
        <mxCell id="MVYVEAA_Kf6R7zkhuGr3-54" value="end" style="strokeWidth=2;html=1;shape=mxgraph.flowchart.start_1;whiteSpace=wrap;" vertex="1" parent="1">
          <mxGeometry x="364" y="2100" width="100" height="60" as="geometry" />
        </mxCell>
      </root>
    </mxGraphModel>
  </diagram>
</mxfile>
